<svg xmlns="http://www.w3.org/2000/svg" xmlns:xlink="http://www.w3.org/1999/xlink" viewBox="0 0 360 360" width="128" height="128"><desc><pre>. . . . . . . .
p p . . p p p p
. . . . . . . .
. . P p . . . .
. . . P . . . .
. . . . . . . .
P P . . . P P P
. . . . . . . .</pre></desc><defs><g id="white-pawn" class="white pawn"><path d="M22.5 9c-2.21 0-4 1.79-4 4 0 .89.29 1.71.78 2.38C17.33 16.5 16 18.59 16 21c0 2.03.94 3.84 2.41 5.03-3 1.06-7.41 5.55-7.41 13.47h23c0-7.92-4.41-12.41-7.41-13.47 1.47-1.19 2.41-3 2.41-5.03 0-2.41-1.33-4.5-3.28-5.62.49-.67.78-1.49.78-2.38 0-2.21-1.79-4-4-4z" fill="#fff" stroke="#000" stroke-width="1.5" stroke-linecap="round" /></g><g id="black-pawn" class="black pawn"><path d="M22.5 9c-2.21 0-4 1.79-4 4 0 .89.29 1.71.78 2.38C17.33 16.5 16 18.59 16 21c0 2.03.94 3.84 2.41 5.03-3 1.06-7.41 5.55-7.41 13.47h23c0-7.92-4.41-12.41-7.41-13.47 1.47-1.19 2.41-3 2.41-5.03 0-2.41-1.33-4.5-3.28-5.62.49-.67.78-1.49.78-2.38 0-2.21-1.79-4-4-4z" fill="#000" stroke="#000" stroke-width="1.5" stroke-linecap="round" /></g></defs><rect x="0" y="315" width="45" height="45" class="square dark a1" stroke="none" fill="#d18b47" /><rect x="45" y="315" width="45" height="45" class="square light b1" stroke="none" fill="#ffce9e" /><rect x="90" y="315" width="45" height="45" class="square dark c1" stroke="none" fill="#d18b47" /><rect x="135" y="315" width="45" height="45" class="square light d1" stroke="none" fill="#ffce9e" /><rect x="180" y="315" width="45" height="45" class="square dark e1" stroke="none" fill="#d18b47" /><rect x="225" y="315" width="45" height="45" class="square light f1" stroke="none" fill="#ffce9e" /><rect x="270" y="315" width="45" height="45" class="square dark g1" stroke="none" fill="#d18b47" /><rect x="315" y="315" width="45" height="45" class="square light h1" stroke="none" fill="#ffce9e" /><rect x="0" y="270" width="45" height="45" class="square light a2" stroke="none" fill="#ffce9e" /><rect x="45" y="270" width="45" height="45" class="square dark b2" stroke="none" fill="#d18b47" /><rect x="90" y="270" width="45" height="45" class="square light c2" stroke="none" fill="#ffce9e" /><rect x="135" y="270" width="45" height="45" class="square dark d2" stroke="none" fill="#d18b47" /><rect x="180" y="270" width="45" height="45" class="square light e2" stroke="none" fill="#ffce9e" /><rect x="225" y="270" width="45" height="45" class="square dark f2" stroke="none" fill="#d18b47" /><rect x="270" y="270" width="45" height="45" class="square light g2" stroke="none" fill="#ffce9e" /><rect x="315" y="270" width="45" height="45" class="square dark h2" stroke="none" fill="#d18b47" /><rect x="0" y="225" width="45" height="45" class="square dark a3" stroke="none" fill="#d18b47" /><rect x="45" y="225" width="45" height="45" class="square light b3" stroke="none" fill="#ffce9e" /><rect x="90" y="225" width="45" height="45" class="square dark c3" stroke="none" fill="#d18b47" /><rect x="135" y="225" width="45" height="45" class="square light d3" stroke="none" fill="#ffce9e" /><rect x="180" y="225" width="45" height="45" class="square dark e3" stroke="none" fill="#d18b47" /><rect x="225" y="225" width="45" height="45" class="square light f3" stroke="none" fill="#ffce9e" /><rect x="270" y="225" width="45" height="45" class="square dark g3" stroke="none" fill="#d18b47" /><rect x="315" y="225" width="45" height="45" class="square light h3" stroke="none" fill="#ffce9e" /><rect x="0" y="180" width="45" height="45" class="square light a4" stroke="none" fill="#ffce9e" /><rect x="45" y="180" width="45" height="45" class="square dark b4" stroke="none" fill="#d18b47" /><rect x="90" y="180" width="45" height="45" class="square light c4" stroke="none" fill="#ffce9e" /><rect x="135" y="180" width="45" height="45" class="square dark d4" stroke="none" fill="#d18b47" /><rect x="180" y="180" width="45" height="45" class="square light e4" stroke="none" fill="#ffce9e" /><rect x="225" y="180" width="45" height="45" class="square dark f4" stroke="none" fill="#d18b47" /><rect x="270" y="180" width="45" height="45" class="square light g4" stroke="none" fill="#ffce9e" /><rect x="315" y="180" width="45" height="45" class="square dark h4" stroke="none" fill="#d18b47" /><rect x="0" y="135" width="45" height="45" class="square dark a5" stroke="none" fill="#d18b47" /><rect x="45" y="135" width="45" height="45" class="square light b5" stroke="none" fill="#ffce9e" /><rect x="90" y="135" width="45" height="45" class="square dark c5" stroke="none" fill="#d18b47" /><rect x="135" y="135" width="45" height="45" class="square light d5" stroke="none" fill="#ffce9e" /><rect x="180" y="135" width="45" height="45" class="square dark e5" stroke="none" fill="#d18b47" /><rect x="225" y="135" width="45" height="45" class="square light f5" stroke="none" fill="#ffce9e" /><rect x="270" y="135" width="45" height="45" class="square dark g5" stroke="none" fill="#d18b47" /><rect x="315" y="135" width="45" height="45" class="square light h5" stroke="none" fill="#ffce9e" /><rect x="0" y="90" width="45" height="45" class="square light a6" stroke="none" fill="#ffce9e" /><rect x="45" y="90" width="45" height="45" class="square dark b6" stroke="none" fill="#d18b47" /><rect x="90" y="90" width="45" height="45" class="square light c6" stroke="none" fill="#ffce9e" /><rect x="135" y="90" width="45" height="45" class="square dark d6" stroke="none" fill="#d18b47" /><rect x="180" y="90" width="45" height="45" class="square light e6" stroke="none" fill="#ffce9e" /><rect x="225" y="90" width="45" height="45" class="square dark f6" stroke="none" fill="#d18b47" /><rect x="270" y="90" width="45" height="45" class="square light g6" stroke="none" fill="#ffce9e" /><rect x="315" y="90" width="45" height="45" class="square dark h6" stroke="none" fill="#d18b47" /><rect x="0" y="45" width="45" height="45" class="square dark a7" stroke="none" fill="#d18b47" /><rect x="45" y="45" width="45" height="45" class="square light b7" stroke="none" fill="#ffce9e" /><rect x="90" y="45" width="45" height="45" class="square dark c7" stroke="none" fill="#d18b47" /><rect x="135" y="45" width="45" height="45" class="square light d7" stroke="none" fill="#ffce9e" /><rect x="180" y="45" width="45" height="45" class="square dark e7" stroke="none" fill="#d18b47" /><rect x="225" y="45" width="45" height="45" class="square light f7" stroke="none" fill="#ffce9e" /><rect x="270" y="45" width="45" height="45" class="square dark g7" stroke="none" fill="#d18b47" /><rect x="315" y="45" width="45" height="45" class="square light h7" stroke="none" fill="#ffce9e" /><rect x="0" y="0" width="45" height="45" class="square light a8" stroke="none" fill="#ffce9e" /><rect x="45" y="0" width="45" height="45" class="square dark b8" stroke="none" fill="#d18b47" /><rect x="90" y="0" width="45" height="45" class="square light c8" stroke="none" fill="#ffce9e" /><rect x="135" y="0" width="45" height="45" class="square dark d8" stroke="none" fill="#d18b47" /><rect x="180" y="0" width="45" height="45" class="square light e8" stroke="none" fill="#ffce9e" /><rect x="225" y="0" width="45" height="45" class="square dark f8" stroke="none" fill="#d18b47" /><rect x="270" y="0" width="45" height="45" class="square light g8" stroke="none" fill="#ffce9e" /><rect x="315" y="0" width="45" height="45" class="square dark h8" stroke="none" fill="#d18b47" /><use href="#white-pawn" xlink:href="#white-pawn" transform="translate(0, 270)" /><use href="#white-pawn" xlink:href="#white-pawn" transform="translate(45, 270)" /><use href="#white-pawn" xlink:href="#white-pawn" transform="translate(225, 270)" /><use href="#white-pawn" xlink:href="#white-pawn" transform="translate(270, 270)" /><use href="#white-pawn" xlink:href="#white-pawn" transform="translate(315, 270)" /><use href="#white-pawn" xlink:href="#white-pawn" transform="translate(135, 180)" /><use href="#white-pawn" xlink:href="#white-pawn" transform="translate(90, 135)" /><use href="#black-pawn" xlink:href="#black-pawn" transform="translate(135, 135)" /><use href="#black-pawn" xlink:href="#black-pawn" transform="translate(0, 45)" /><use href="#black-pawn" xlink:href="#black-pawn" transform="translate(45, 45)" /><use href="#black-pawn" xlink:href="#black-pawn" transform="translate(180, 45)" /><use href="#black-pawn" xlink:href="#black-pawn" transform="translate(225, 45)" /><use href="#black-pawn" xlink:href="#black-pawn" transform="translate(270, 45)" /><use href="#black-pawn" xlink:href="#black-pawn" transform="translate(315, 45)" /></svg>